<?xml version="1.0" encoding="UTF-8" standalone="no"?>

<svg width="120" height="200"    xmlns="http://www.w3.org/2000/svg"
   xmlns:svg="http://www.w3.org/2000/svg">
            <rect x="0" y="0" width="120" height="20" fill="#424242" name='roof / top' />
            <rect x="15" y="20" width="90" height="5" fill="#383838" />
            <rect x="10" y="25" width="100" height="15" fill="#424242" />
            <rect x="25" y="40" width="70" height="5" fill="#383838" />
            <rect x="15" y="45" width="90" height="5" fill="#424242" />
            <rect x="25" y="50" width="20" height="100" fill="#424242" name='column / body' />
            <rect x="40" y="50" width="5" height="100" fill="#383838" />
            <rect x="45" y="55" width="5" height="90" fill="#424242" />
            <rect x="50" y="50" width="15" height="100" fill="#424242" />
            <rect x="65" y="55" width="5" height="90" fill="#424242" />
            <rect x="70" y="50" width="5" height="100" fill="#383838" />
            <rect x="75" y="50" width="20" height="100" fill="#424242" name='end column / body' />
            <rect x="50" y="60" width="15" height="5" fill="#383838" name='details' />
            <rect x="50" y="70" width="15" height="60" fill="#383838" />
            <rect x="50" y="135" width="15" height="5" fill="#383838" name='end details' />
            <rect x="15" y="150" width="90" height="5" fill="#424242" name='floor / bottom' />
            <rect x="25" y="155" width="70" height="5" fill="#383838" />
            <rect x="10" y="160" width="100" height="15" fill="#424242" />
            <rect x="15" y="175" width="90" height="5" fill="#383838" />
            <rect x="0" y="180" width="120" height="20" fill="#424242" name='end floor / bottom' />
        </svg>